<svg xmlns="http://www.w3.org/2000/svg" viewBox="0 0 1922.002 448.145"><g data-name="Group 23" fill="#ccc"><path data-name="Path 290" d="M152 185.133s254.784-99.3 603.256 0 980.587-117.878 980.587-117.878 61.455-36.249 184.887-21.879c.167.053-.222 403.157 0 402.33l-796.5-12.978-972.227 13.417z" opacity=".401"/><path data-name="Path 299" d="M0 143.133s254.784-99.3 603.256 0 980.587-117.878 980.587-117.878 214.683-36.256 338.115-21.887c.167.053-.222 403.157 0 402.33l-949.731-12.971L0 406.144z" opacity=".217"/><path data-name="Path 289" d="M.445 191.716c96.5-22.961 295.183-53.288 539.811 16.417 348.472 99.3 980.587-117.878 980.587-117.878s118.549-78.494 356.9 21.041a253.947 253.947 0 0143.147 22.693c.267 1.019-.135 314.673 0 313.447-.384-.362-1920.445.607-1920.445.607s.162-256.355 0-256.327z"/></g></svg>