<svg xmlns="http://www.w3.org/2000/svg" style="isolation:isolate" viewBox="0 0 100 65" width="100pt" height="65pt"><defs><clipPath id="a"><path d="M0 0h100v65H0z"/></clipPath></defs><g clip-path="url(#a)"><path d="M24.5 11a1.499 1.499 0 01-1.06-2.56c.28-.28.66-.44 1.06-.44h58a1.499 1.499 0 011.06 2.56c-.28.28-.66.44-1.06.44h-58z"/><path d="M81 9.5a1.499 1.499 0 012.56-1.06c.28.28.44.66.44 1.06v50a1.499 1.499 0 01-2.56 1.06c-.28-.28-.44-.66-.44-1.06v-50z"/><path d="M81.44 58.44l7-7a1.499 1.499 0 112.12 2.12l-7 7a1.499 1.499 0 11-2.12-2.12z"/><path d="M81.44 60.56l-7-7a1.499 1.499 0 112.12-2.12l7 7a1.499 1.499 0 11-2.12 2.12z"/></g></svg>