<svg xmlns="http://www.w3.org/2000/svg" width="856" height="400" viewBox="0 0 820 300"><path d="M26.825 337.513c-4.765-1.459-10.886-8.006-12.262-13.116-1.502-5.578-.525-12.349 2.42-16.78 1.715-2.58 53.66-39.106 192.352-135.256C313.837 99.914 400.555 40.176 402.041 39.61c3.6-1.369 10.476-1.302 14.673.142 4.401 1.514 377.036 259.726 382.673 265.168 7.002 6.759 7.998 15.258 2.823 24.088-3.671 6.264-11.515 10.1-18.874 9.228-6.363-.754 16.2 14.524-198.723-134.56-95.975-66.576-174.972-120.88-175.55-120.678-.576.202-81.852 56.394-180.61 124.87-98.76 68.477-181.376 125.703-183.593 127.17-4.553 3.013-12.646 4.123-18.035 2.474zm258.788-10.043c-8.776-1.403-19.128-7.2-26.029-14.577-9.494-10.15-13.97-21.143-13.97-34.31 0-13.166 4.476-24.16 13.97-34.309 25.207-26.946 71.199-16.96 83.174 18.058 3.233 9.453 3.233 23.05 0 32.503-5.68 16.611-21.236 29.938-38.145 32.68-7.433 1.205-11.24 1.196-19-.045zm230 0c-8.776-1.403-19.128-7.2-26.029-14.577-9.494-10.15-13.97-21.143-13.97-34.31 0-13.166 4.476-24.16 13.97-34.309 25.207-26.946 71.199-16.96 83.174 18.058 3.233 9.453 3.233 23.05 0 32.503-5.68 16.611-21.236 29.938-38.145 32.68-7.433 1.205-11.24 1.196-19-.045z" fill="#050505"/></svg>