<svg xmlns="http://www.w3.org/2000/svg" viewBox="0 0 64 60"><path d="M53 41a1 1 0 00-1 1v17.382l-2-1V40a1 1 0 00-2 0v18.382l-2 1V52a1 1 0 00-2 0v8H10V36a1 1 0 00-2 0v25a1 1 0 001 1h36a1.008 1.008 0 00.351-.071c.019-.007.038-.012.056-.02s.027-.008.039-.014L49 60.118l3.553 1.782A1 1 0 0054 61V42a1 1 0 00-1-1z"/><path d="M21.187 47.94a1 1 0 00.278 1.387 9.917 9.917 0 0012.5-1.2l.067 1.039a1 1 0 001 .935h.066a1 1 0 00.933-1.062l-.232-3.6a1 1 0 00-1.069-.939l-3.6.232a1 1 0 10.129 2l1.359-.088a7.924 7.924 0 01-10.046 1.02 1 1 0 00-1.385.276zM30.832 29.445a1 1 0 00-1.387-.277l-3 2a1 1 0 00-.277 1.387l2 3a1 1 0 101.664-1.11l-.773-1.159A8 8 0 0135 41c0 .123-.009.244-.018.365l-.008.134a1 1 0 00.935 1.06h.064a1 1 0 001-.937l.008-.122a7.57 7.57 0 00.022-.5 10 10 0 00-7.288-9.606l.843-.562a1 1 0 00.274-1.387zM15.077 43.458a1 1 0 00.453 1.34l3.232 1.6a1 1 0 001.34-.453l1.6-3.232a1 1 0 00-1.793-.886l-.619 1.251a7.92 7.92 0 014.158-9.234 1 1 0 00-.892-1.79A9.944 9.944 0 0017 41a9.651 9.651 0 00.333 2.458l-.916-.453a1 1 0 00-1.34.453z"/><path d="M58.221 9.394a1 1 0 00-1.282.6.984.984 0 01-.789.638 1 1 0 00-.72 1.473 1.967 1.967 0 01.141 1.648 2 2 0 01-3.822-.219 1 1 0 00-1.567-.57A1.98 1.98 0 0147.113 12a1 1 0 00-.944-.676 1 1 0 01-.336-.053.987.987 0 01-.639-.79 1 1 0 00-1.472-.72 1.992 1.992 0 01-2.844-2.422 2 2 0 012.563-1.2 1 1 0 001.283-.6 1.978 1.978 0 013.338-.665 1 1 0 00.718.322 1.017 1.017 0 00.729-.3 2.987 2.987 0 015.078 2.621 1 1 0 101.969.352A4.985 4.985 0 0048.8 2.9a3.816 3.816 0 00-.832-.424 4 4 0 00-4.725 1.58A4 4 0 0038.881 9H37a3.959 3.959 0 00-2 .556V9a1 1 0 00-2 0v4.09a6 6 0 00-3.482 1.934l-1.276-7.239a7 7 0 00-8.11-5.678 4.981 4.981 0 00-3.566 2.659A7.008 7.008 0 007.5 2.938a5.008 5.008 0 00-1.83 6.831l3.925 6.8a1 1 0 001.733-1L7.4 8.769a3 3 0 011.1-4.1A5.006 5.006 0 0115.331 6.5l.5.866-2.6 1.5a1 1 0 101 1.732l2.6-1.5 1 1.732-2.6 1.5a1 1 0 101 1.732l2.6-1.5 1 1.732-2.6 1.5a1 1 0 101 1.732l2.6-1.5 1.556 2.7-.832-.555a1 1 0 00-1.11 0L15 21.8l-5.445-3.63A1 1 0 008 19v13a1 1 0 002 0V20.869l4.445 2.963a1 1 0 001.11 0L21 20.2l5.445 3.63a1 1 0 001.11 0L33 20.2l5.445 3.63a1 1 0 001.11 0L44 20.869V48a1 1 0 002 0V20.618l2 1V29a1 1 0 002 0v-7.382l2-1V38a1 1 0 002 0V19a1 1 0 00-1.447-.895L49 19.882l-.216-.108a36.831 36.831 0 012.43-3.575 3.986 3.986 0 006.371-4.01 2.984 2.984 0 001.233-1.513 1 1 0 00-.597-1.282zM37 11h1.829A3.006 3.006 0 0136 13h-1a2 2 0 012-2zM27 21.8l-.858-.571-8.079-13.996-.029-.05a2.99 2.99 0 012.446-3.106 5 5 0 015.792 4.056l.174.984-2.955.522a1 1 0 00.173 1.985.95.95 0 00.175-.016l2.954-.521.347 1.97-2.954.521a1 1 0 00.172 1.985.95.95 0 00.175-.016l2.955-.52.566 3.211A5.981 5.981 0 0028 19a5.786 5.786 0 00.335 1.908zm5.445-3.63l-2.362 1.575A3.677 3.677 0 0130 19a4 4 0 018 0 3.861 3.861 0 01-.467 1.82l-3.978-2.652a1 1 0 00-1.11 0zm6.955 3.36A5.829 5.829 0 0040 19a5.978 5.978 0 00-1.975-4.437 5.006 5.006 0 002.727-3.087 3.98 3.98 0 00.638.3 3.914 3.914 0 00.922.205 36.987 36.987 0 01-1.068 8.319zm6.044-3.425a1 1 0 00-1 .059l-.8.531a39 39 0 00.648-6.033 2.973 2.973 0 00.85.483 2.87 2.87 0 00.335.1 4.021 4.021 0 00.452.666L45.4 15.37a1 1 0 101.879.684l.342-.939a3.984 3.984 0 001.732.211 39.246 39.246 0 00-2.366 3.551z"/></svg>