<svg xmlns="http://www.w3.org/2000/svg" viewBox="0 0 60 60" x="0px" y="0px"><title>Food and Drink - 030 - Groceries</title><path d="M13,28a.99974.99974,0,0,0-1,1V51a1,1,0,0,0,2,0V29A.99974.99974,0,0,0,13,28Z"/><path d="M46,29V51a1,1,0,0,0,2,0V29a1,1,0,0,0-2,0Z"/><path d="M10,5V17.63782l-.23242-.27844A.99993.99993,0,0,0,8,18V51.55176a5.01058,5.01058,0,0,0,1.1582,3.20068l2.27441,2.729A6.98177,6.98177,0,0,0,16.81055,60H43.18945a6.98177,6.98177,0,0,0,5.37793-2.51855l2.27441-2.729A5.01058,5.01058,0,0,0,52,51.55176V18a.99993.99993,0,0,0-1.76758-.64062L50,17.63782V14a6.00448,6.00448,0,0,0-5-5.90967V6a2.00229,2.00229,0,0,0,2-2V2a2.00229,2.00229,0,0,0-2-2H39a2.00229,2.00229,0,0,0-2,2V4a2.00229,2.00229,0,0,0,2,2V8.09033a6.00545,6.00545,0,0,0-4.9519,5.18561A7.92194,7.92194,0,0,0,32,13a8.01487,8.01487,0,0,0-4,1.084V9a5.00589,5.00589,0,0,0-5-5,4.9514,4.9514,0,0,0-3,1.02557V5A5,5,0,0,0,10,5ZM50,51.55176a3.00653,3.00653,0,0,1-.69531,1.92041l-2.27441,2.729A4.98575,4.98575,0,0,1,43.18945,58H16.81055a4.98575,4.98575,0,0,1-3.84082-1.79883l-2.27441-2.729A3.00653,3.00653,0,0,1,10,51.55176V20.7583l2.42285,2.90234a.93978.93978,0,0,0,.1283.10309.94312.94312,0,0,0,.12756.11566c.00928.00549.01978.00507.02905.01019a.96868.96868,0,0,0,.2085.07306.999.999,0,0,0,.16016.04657.98946.98946,0,0,0,.20715-.01178.99267.99267,0,0,0,.17078-.0174,1.00035,1.00035,0,0,0,.16724-.07874.96957.96957,0,0,0,.18213-.09882c.00842-.00665.019-.00793.02734-.01489a.93977.93977,0,0,0,.104-.12964.94841.94841,0,0,0,.11475-.12622l.30469-.51318a.7746.7746,0,0,1,1.291,0,2.7171,2.7171,0,0,0,3.833.88287.99052.99052,0,0,0,.2522-.189,2.76208,2.76208,0,0,0,.62378-.69385.7746.7746,0,0,1,1.291,0,2.74743,2.74743,0,0,0,4.709,0,.7746.7746,0,0,1,1.291,0,2.74743,2.74743,0,0,0,4.709,0,.7746.7746,0,0,1,1.291,0,2.74743,2.74743,0,0,0,4.709,0,.7746.7746,0,0,1,1.291,0,2.7476,2.7476,0,0,0,4.71094-.00293.7517.7517,0,0,1,1.28418-.00391l.30957.52a2.72974,2.72974,0,0,1,.21875.25586c.0083.007.01892.00824.02734.01489a.96957.96957,0,0,0,.18213.09882.52911.52911,0,0,0,.338.09613.55352.55352,0,0,0,.36731-.03479.96868.96868,0,0,0,.2085-.07306c.00928-.00513.01978-.0047.02905-.01019a2.82476,2.82476,0,0,1,.25586-.21875L50,20.7583ZM39,2l6,.00293V4H39Zm4,4V8H41V6Zm-3,4h4a4.00427,4.00427,0,0,1,4,4v6.03375L46.86792,21.39a2.7442,2.7442,0,0,0-4.22241.59143.7746.7746,0,0,1-1.291,0A2.731,2.731,0,0,0,39.99,20.85626,7.88854,7.88854,0,0,0,36,14.09674V14A4.00427,4.00427,0,0,1,40,10Zm-5.42676,5.58447a5.9295,5.9295,0,0,1,3.41724,5.27979,2.73065,2.73065,0,0,0-1.345,1.11719.7746.7746,0,0,1-1.291,0,2.74743,2.74743,0,0,0-4.709,0,.7746.7746,0,0,1-1.291,0,2.67529,2.67529,0,0,0-3.34766-1.1239,5.93864,5.93864,0,0,1,1.71094-4.05188A6.08811,6.08811,0,0,1,34.57324,15.58447ZM23,6a3.00328,3.00328,0,0,1,3,3v6.72974A7.81468,7.81468,0,0,0,24.11719,22.3a.741.741,0,0,1-.7627-.3186A2.67551,2.67551,0,0,0,20,20.86035V9A3.00328,3.00328,0,0,1,23,6ZM15,2a3.00328,3.00328,0,0,1,3,3V22.32788a.74579.74579,0,0,1-.64551-.34644,2.73694,2.73694,0,0,0-4.22144-.59039L12,20.03375V5A3.00328,3.00328,0,0,1,15,2Z"/><path d="M14,10a.99676.99676,0,0,0,.707-.293l1-1A.99989.99989,0,0,0,14.293,7.293l-1,1A1,1,0,0,0,14,10Z"/><path d="M14,14a.99676.99676,0,0,0,.707-.293l1-1A.99989.99989,0,0,0,14.293,11.293l-1,1A1,1,0,0,0,14,14Z"/><path d="M14,18a.99676.99676,0,0,0,.707-.293l1-1A.99989.99989,0,0,0,14.293,15.293l-1,1A1,1,0,0,0,14,18Z"/><path d="M22,14a.99676.99676,0,0,0,.707-.293l1-1A.99989.99989,0,0,0,22.293,11.293l-1,1A1,1,0,0,0,22,14Z"/><path d="M22,18a.99676.99676,0,0,0,.707-.293l1-1A.99989.99989,0,0,0,22.293,15.293l-1,1A1,1,0,0,0,22,18Z"/></svg>
