<svg xmlns="http://www.w3.org/2000/svg" width="3473.455" height="2426.182" viewBox="0 0 2200 2400"><path d="M1574.744 2177.91c-8.653-3.768-37.942-21.772-52.997-32.577l-10.125-7.267-10.966 5.469c-17.906 8.929-32.867 14.565-52.598 19.816-16.35 4.35-20.735 4.62-63.275 3.909-20.701-.347-88.366-.977-150.366-1.401-106.645-.729-169.042-1.21-377.455-2.912-48.8-.399-136.018-1.08-193.818-1.512-172.426-1.291-244.972-2.094-253.818-2.809-32.666-2.639-69.289-10.254-92.552-19.245-15.571-6.018-38.477-18.33-55.448-29.803-26.895-18.181-53.599-44.76-71.345-71.008-21.054-31.14-33.815-62.587-41.615-102.545l-1.917-9.818-.132-747.637c-.073-411.2.14-756.472.473-767.272.76-24.58 2.47-37.93 7.36-57.455 9.937-39.669 27.985-74.737 52.88-102.749 6.937-7.805 26.145-22.37 35.363-26.816 9.155-4.415 25.248-8.253 34.602-8.253 2.733 0 3.452-.619 19.765-16.995 17.774-17.843 20.429-19.976 41.334-33.218 17.075-10.814 23.338-13.737 45.994-21.46 24.52-8.36 43.589-12.2 76.147-15.335 10.568-1.018 20.314-1.204 57.454-1.099l305.091.864c672.077 1.903 684.76 1.969 695.637 3.597 31.018 4.646 58.028 13.099 85.022 26.608 14.658 7.336 23.889 13.12 36.249 22.713 18.961 14.718 33.09 28.9 46.266 46.444 13.337 17.757 21.998 33.597 31.67 57.922 9.607 24.16 14.713 46.047 16.066 68.868.544 9.184.663 41.5.375 101.818-.232 48.6-.734 198-1.115 332-.38 134-.865 270.637-1.075 303.637-.73 114.083-1.521 439.335-1.116 458.095.012.552 3.275-3.621 7.253-9.273 13.815-19.634 25.267-33.25 40.168-47.757 11.505-11.2 26.607-23.164 28.725-22.756 1.644.316 2.546 2.15 8.883 18.054 21.345 53.57 33.807 111.782 37.15 173.528.414 7.64.968 21.795 1.232 31.455.554 20.295.657 20.045-5.828 14.174-9.732-8.808-18.803-12.17-28.405-10.527-6.533 1.118-11.256 3.756-16.108 8.997-7.118 7.688-11.209 18.773-11.209 30.373 0 15.706 6.083 26.584 18.03 32.244 4.401 2.085 5.512 2.302 11.822 2.302 6.725 0 7.176-.106 13.177-3.08 3.82-1.893 7.229-4.203 8.852-6 4.809-5.322 6.115-3.305 4.467 6.898-.581 3.6-1.9 11.945-2.93 18.545-1.031 6.6-3.014 17.728-4.406 24.728-3.045 15.305-11.164 48.726-12.146 50-1.322 1.712-2.717.901-7.98-4.641-7.998-8.421-18.12-14.59-28.544-17.398-6.592-1.775-19.926-2.165-26.545-.776-10.65 2.235-24.545 10.913-28.991 18.107-4.15 6.714-7.096 21.859-5.827 29.946 2.025 12.906 14.156 28.867 27.908 36.72 11.28 6.441 26.028 10.066 37.194 9.142 4.094-.34 6.077-.237 6.428.33.594.96-15.845 34.636-24.448 50.084-41.126 73.845-97.83 135.248-162.23 175.673-13.353 8.382-28.167 16.36-33.41 17.992-5.14 1.599-5.39 1.61-8.297.343zm-138.017-114.452c.588-.374-.62-2.706-3.852-7.443-29.24-42.84-46.375-92.966-48.744-142.587l-.477-9.985 7.65.39c6.456.33 8.432.152 12.654-1.14 14.135-4.324 25.643-16.014 29.745-30.217.916-3.171 1.161-6.177.95-11.636-.26-6.698-.509-7.774-2.754-11.958-4.882-9.095-12.835-13.59-24.028-13.578-4.582.01-7.468.45-11.155 1.717-3.536 1.216-5.2 1.486-5.753.932-.887-.887 2.039-13.487 6.775-29.183 1.573-5.213 2.86-9.773 2.86-10.132 0-.385-141.835-.77-345.272-.937-327.31-.268-345.424-.35-348.172-1.56-7.049-3.104-10.583-9.982-8.977-17.47.93-4.338 5.235-9.382 9.207-10.79 2.177-.773 67.49-.947 354.305-.947h351.637l2.148-4.364c9.718-19.735 22.43-42.193 24.286-42.905.56-.215 3.065.752 5.565 2.15 11.1 6.208 26.824 20.48 38.492 34.937 3.55 4.4 7.098 8.573 7.881 9.273 1.325 1.183 4.608 1.273 46.617 1.277 30.208 0 46.134.265 48.03.792 1.562.433 4.291 2.16 6.066 3.837 7.675 7.25 5.896 19.3-3.543 24.005l-3.828 1.907h-35.493c-24.562 0-35.494.238-35.494.773 0 .424 2.11 4.325 4.687 8.668 16.135 27.182 34.297 65.693 48.026 101.832 2.659 7 7.137 18.127 9.95 24.727 2.815 6.6 7.225 17.397 9.801 23.992 2.576 6.596 4.966 12.274 5.31 12.619.351.35.797.033 1.013-.72.95-3.312 6.45-30.136 8.478-41.345 10.174-56.243 15.387-80.992 25.178-119.52 24.233-95.364 55.41-175.436 93.069-239.032l6.033-10.188.764-222.176c.42-122.196 1.088-345.557 1.484-496.357.396-150.8.9-304.455 1.12-341.455.571-95.69.478-133.223-.348-140.727-.397-3.6-.727-8.922-.734-11.826-.01-2.904-.679-8.304-1.492-12-3.892-17.673-9.178-37.204-11.76-43.447a963.646 963.646 0 01-6.112-15.273c-3.03-7.78-10.354-21.98-14.82-28.727-8.21-12.406-11.088-16.485-15.544-22.032-15.462-19.249-34.095-36.144-54.464-49.384-9.502-6.177-25.75-15.165-32.912-18.206-5.947-2.525-31.554-11.893-37.454-13.702-8.787-2.694-26.149-6.23-35.273-7.183-17.27-1.805-14.792-1.79-654.545-3.744-376.363-1.15-393.7-1.098-409.819 1.225-2.6.375-10.734 1.494-18.076 2.486-17.143 2.317-31.12 5.613-48.833 11.516-22.384 7.46-30.288 11.183-48.727 22.948-15.75 10.05-20.146 13.633-35.309 28.781-15.094 15.08-26.28 29.015-32.595 40.608-5.855 10.748-11.251 26.968-15.048 45.233-3.758 18.076-4.556 26.342-4.808 49.818-.336 31.33-1.421 370.017-3.858 1204-.389 133.2-.896 256.47-1.126 273.934l-.42 31.753 2.243 12.247c2.521 13.772 9.451 36.442 15.354 50.228 15.099 35.263 34.707 64.864 59.171 89.323 23.3 23.296 47.847 39.432 75.805 49.83 20.631 7.675 39.28 11.21 68.591 13.004 7.217.442 115.063 1.056 270.545 1.541 142.2.444 333 1.052 424 1.351 242.16.798 275.182.824 276.13.222zm-1000.96-231.516c-.57-.708-.946-16.577-1.264-53.372-.25-28.8-.661-75.604-.915-104.01-.392-43.874-.308-51.774.56-52.494.728-.604 10.25-.965 33.01-1.253 59.533-.753 174.711-1.308 176.16-.849 1.365.434 1.462 1.372 1.899 18.44.253 9.892.675 57.157.937 105.035l.476 87.05-1.743.367c-2.298.483-50.977 1.06-137.754 1.63-59.671.393-70.68.309-71.367-.544zm128.831-3.917c20.8-.197 46.947-.36 58.104-.361h20.286l-.467-53.636c-.257-29.5-.68-75.524-.939-102.275l-.472-48.638-31.71.452c-17.44.249-63.181.661-101.645.916l-69.934.464-.325 3.358c-.178 1.848-.232 9.413-.12 16.813.111 7.4.432 51.582.712 98.182.28 46.6.65 84.972.824 85.271.292.503 27.74.384 125.686-.543zm141.388-149.692c-11.01-5.812-10.808-21.651.342-26.983l3.725-1.78 137.455-.79a942901.72 942901.72 0 00499.765-3.006c102.667-.642 133.31-.633 136.118.042 13.503 3.239 15.871 20.846 3.72 27.664l-3.24 1.818-50.909.485c-28 .267-113.09.854-189.09 1.304-608.696 3.607-533.743 3.434-537.886 1.246zm-271.031-270.757c-.436-.844-.89-31.092-1.183-78.824-.71-115.345-.659-130.325.443-131.025.511-.324 9.11-.611 19.11-.639 10-.028 26.037-.184 35.637-.349 9.6-.164 48.23-.51 85.845-.769 57.205-.392 68.52-.307 69.187.52.559.693.932 21.88 1.248 70.808.248 38.4.659 85.204.913 104.01.397 29.434.314 34.313-.597 35.07-1.296 1.075-21.58 1.397-130.882 2.076-76.897.477-79.033.454-79.721-.878zm149.643-3.637c41.16-.327 57.243-.682 57.636-1.275.299-.451.394-1.64.211-2.64-.182-1-.543-43.708-.801-94.908-.484-95.954-.578-104.915-1.101-105.32-.479-.369-201.637.972-202.739 1.352-.81.28-.903 11.606-.546 67.062.535 82.935 1.19 135.618 1.696 136.45.22.36 19.532.44 44.47.185 24.246-.248 69.774-.656 101.174-.906zm412.364-27.187c-270.34-.337-292.162-.453-294.182-1.571-7.203-3.988-10.272-12.701-7.007-19.89 1.662-3.657 5.76-7.307 9.447-8.411 2.144-.643 108.376-.77 439.103-.524 410.827.305 436.445.397 439.175 1.576 4.97 2.148 7.918 5.792 9.175 11.34 1.696 7.492-4.084 15.821-12.14 17.494-3.315.688-36.692.828-147.926.62-79.005-.149-275.045-.434-435.645-.634zm-292.627-118.121c-10.39-3.833-13.188-17.711-5.1-25.295 4.745-4.45-3.73-4.124 128.034-4.936 66.331-.409 170.675-1.062 231.875-1.451 334.252-2.127 417.797-2.433 420.77-1.543 3.577 1.072 8.545 5.391 9.887 8.596 3.607 8.616-2.053 18.607-11.62 20.51-2.445.485-77.066 1.145-212.855 1.88-115 .624-257.855 1.435-317.455 1.803-255.883 1.582-240.503 1.555-243.536.436zM428.452 991.917c-.447-.54-.996-3.438-1.221-6.438-.226-3-.5-50.127-.612-104.727l-.202-99.273 10.545-.443c5.8-.244 46.873-.686 91.273-.98 44.4-.296 81.013-.714 81.363-.929.35-.215 1.543-2.392 2.653-4.837 2.35-5.182 50.817-109.312 52.76-113.356.905-1.882 1.79-2.727 2.854-2.727 2.208 0 20.056 7.814 22.006 9.635 3.542 3.306 2.917 4.953-19.8 52.183a7149.472 7149.472 0 00-21.266 44.727l-11.296 24 .48 67.636c.263 37.2.648 82.242.854 100.094.325 28.22.232 32.599-.717 33.547-.946.947-9.813 1.151-67.127 1.544-36.32.25-83.069.65-103.886.89-31.315.362-37.99.268-38.661-.546zm112.146-3.903c56.344-.317 92.88-.792 93.687-1.216 1.176-.619 1.278-1.402.918-7.008-.223-3.47-.598-45.247-.832-92.836-.235-47.589-.667-86.954-.96-87.479-.33-.59-4.103 6.622-9.882 18.889-5.14 10.913-20.451 43.406-34.023 72.206-13.572 28.8-28.607 60.71-33.411 70.91-4.804 10.2-9.581 19.445-10.616 20.545-3.68 3.915-3.82 3.824-28.999-18.88a82808.548 82808.548 0 00-52.609-47.383c-16.2-14.578-30.36-27.34-31.467-28.36l-2.014-1.856.167 34.512c.092 18.982.279 42.103.415 51.38l.247 16.867 2.69.244c1.48.134 5.308.186 8.508.114 3.2-.07 47.381-.363 98.181-.65zm-4.258-51.444c5.487-10.84 70.804-151.407 70.804-152.375 0-1.03-10.253-1.014-127.636.194-16.4.169-34.358.32-39.906.335l-10.088.029.42 47.454c.232 26.1.435 47.572.452 47.716.017.144 3.35-2.801 7.406-6.545 12.323-11.373 15.19-13.716 16.783-13.716 1.92 0 3.946 2.078 34.048 34.909 32.285 35.212 43.612 47.272 44.398 47.272.357 0 1.851-2.372 3.319-5.272zm251.895 15.456c-75.023-.36-76.033-.384-78.543-1.859-2.998-1.76-5.532-5.279-6.564-9.112-1.555-5.774 1.93-13.17 7.47-15.851l3.187-1.543h408.762c274.734 0 410.044.243 412.673.742 4.771.905 8.43 3.653 10.651 8 3.199 6.26 1.22 13.532-4.846 17.804l-3.097 2.182H1201.08c-185.265 0-371.046-.163-412.846-.364zm-76.364-110.93c-9.86-4.458-12.156-15.862-4.694-23.324 2.441-2.441 3.853-3.21 6.969-3.79 2.469-.46 107.51-1.304 285.362-2.293l360.363-2.004c62.021-.345 79.497-.245 81.655.467 11.293 3.729 13.357 18.324 3.555 25.136l-3.153 2.191-27.028.494c-14.866.271-94.447.853-176.847 1.293-146.823.783-317.064 1.745-454.545 2.567-62.024.37-69.352.295-71.637-.738zm-285.391-265.9c-.511-1.595-1.112-50.73-1.622-132.63-.404-65.011-.324-76.492.544-77.212.75-.622 19.145-.96 69.744-1.28 78.247-.493 110.71-.997 111.35-1.726.244-.278 8.96-18.832 19.37-41.232l29.656-63.818c8.433-18.147 11.02-23.091 12.08-23.091 2.066 0 20.416 7.96 22.27 9.66 3.487 3.201 2.211 6.865-13.91 39.942-3.842 7.88-14.27 29.644-23.174 48.363l-16.19 34.035.051 22.545c.028 12.4.29 58.901.582 103.336.433 65.89.356 80.932-.415 81.561-1.686 1.377-14.747 1.617-113.118 2.08-81.399.385-96.952.3-97.218-.532zm160.3-3.97c25.399-.236 46.464-.605 46.811-.82.351-.217.434-13.158.186-29.204-.245-15.847-.65-59.168-.902-96.268s-.69-67.455-.975-67.455c-.285 0-1.352 1.882-2.371 4.182-1.02 2.3-11.666 24.964-23.659 50.364-11.993 25.4-30.053 63.69-40.134 85.09-10.08 21.4-19.185 39.81-20.232 40.91-3.93 4.126-1.368 6.12-60.17-46.862-33.17-29.885-54.394-49.515-54.652-50.545-.233-.926-.228-2.46.01-3.407.573-2.285 21.817-21.55 23.763-21.55 2.028 0 2.79.787 40.52 41.818 36.132 39.296 37.52 40.739 38.57 40.09.922-.57 1.066-.873 37.772-79.362 17.397-37.2 31.803-68.418 32.014-69.372l.384-1.736-86.467.506c-47.557.278-87.069.681-87.803.896-1.281.373-1.318 1.974-.912 39.411.233 21.462.62 67.003.859 101.202.239 34.2.605 62.457.814 62.795.353.57 41.261.392 156.573-.682zm146.062-35.182l-27.394-.383-3.087-2.182c-5.2-3.674-7.466-10.037-5.79-16.26 1.155-4.29 5.98-9.054 10.25-10.122 4.406-1.102 853.67-.391 857.414.718 7.464 2.21 11.75 9.671 10.066 17.522-.967 4.51-5.483 9.448-9.702 10.609-2.104.578-113.94.756-403.637.64-220.4-.087-413.054-.331-428.12-.542zm-27.886-115.557c-5.32-2.417-9.069-8.247-9.08-14.122-.01-4.759 3.833-10.359 8.895-12.962 2.99-1.539-9.007-1.416 346.737-3.537 400.596-2.388 409.504-2.42 412.607-1.492 6.57 1.965 10.665 7.213 10.665 13.667 0 4.81-.945 7.189-4.177 10.515-4.834 4.975-1.61 4.765-80.186 5.244-39 .238-122.619.762-185.819 1.164-141.124.898-481.217 2.884-490.181 2.863-4.753-.012-7.344-.379-9.461-1.34z" fill="#aecebe"/><path d="M1567.144 2172.543c-16.653-9.171-26.973-15.756-52.581-33.548-12.067-8.383-25.693-20.13-40.554-34.958-11.994-11.968-25.42-26.931-29.83-33.244l-1.115-1.596-240.687-.762c-132.378-.42-349.342-1.087-482.142-1.484-230.783-.69-259.478-.994-276.727-2.936-5.363-.603-18.054-3.167-27.058-5.466-74.002-18.89-134.227-79.545-165.993-167.18-4.946-13.644-6.882-20.843-8.528-31.708-1.475-9.739-1.484-11.133-1.032-172.727.91-325.349 1.913-653.861 2.616-856 .394-113.6.894-273.8 1.11-356 .232-87.566.7-154.574 1.134-161.818 1.115-18.618 3.976-34.421 9.087-50.182 3.323-10.25 11.183-26.387 17.262-35.445 8.797-13.105 36.473-41.258 49.22-50.067 10.907-7.538 28.244-18.41 33.891-21.252 6.172-3.107 22.521-9.353 35.481-13.555 16.306-5.287 34.243-9.093 53.173-11.283 32.036-3.707 11.856-3.514 277.753-2.658 135.236.435 281.393.957 324.793 1.16 177.21.83 262.564 1.109 354.182 1.158 53 .028 100.781.358 106.181.733 29.525 2.05 64.375 11.913 94.91 26.863 14.072 6.89 25.106 13.67 36.116 22.192 31.835 24.643 53.196 50.097 69.551 82.881 14.787 29.64 24.048 61.894 25.617 89.224.762 13.269.405 181.824-1.516 715.867-1.071 297.758-1.38 484.734-.802 484.692.268-.02 3.76-4.81 7.76-10.647 14.627-21.342 34.163-43.84 49.36-56.84 8.85-7.57 17.424-13.932 18.778-13.932 2.186 0 13.82 30.01 22.023 56.81 15.126 49.419 22.39 97.014 24.019 157.372.227 8.4.597 17.154.824 19.454.29 2.942.16 4.182-.438 4.182-.468 0-2.599-1.541-4.735-3.425-5.578-4.918-12.249-8.733-16.992-9.72-5.467-1.136-14.137-.464-18.524 1.436-4.4 1.906-11.442 8.564-14.66 13.86-7.73 12.727-8.953 30.346-3.005 43.337 2.131 4.656 7.523 10.64 11.897 13.203 4.144 2.428 11.201 4.584 14.973 4.573 7.03-.02 16.348-3.87 22.285-9.208 2.039-1.833 3.91-3.13 4.16-2.88 1 1.001-5.903 42.801-10.403 62.978-2.998 13.44-8.876 37.032-9.465 37.985-.23.37-3.576-2.392-7.438-6.139-10.543-10.228-19.774-15.13-33.295-17.683-16.42-3.1-33.616 1.688-45.477 12.663-5.985 5.537-8.195 9.647-10.792 20.064-3.153 12.65-1.14 23.427 6.522 34.937 3.315 4.98 10.48 12.473 15.352 16.058 4.874 3.585 16.168 8.816 22.85 10.583 4.013 1.06 8.75 1.627 15.273 1.824 5.2.158 9.584.367 9.743.466 1.508.937-18.773 41.016-31.932 63.102-13.502 22.662-33.956 51.227-51.287 71.622-10.2 12.005-38.74 40.817-50.16 50.64-23.844 20.51-53.507 40.818-76.752 52.545-12.056 6.083-12.719 6.08-23.976-.12zm-128.39-108.612c.251-.252-2.955-5.652-7.125-12-21.473-32.686-35.506-67.173-42.3-103.955-2.16-11.704-4.003-28.668-4.003-36.868v-6.048l7.818-.02c6.226-.014 8.78-.355 12.545-1.672 13.866-4.85 24.909-16.409 29.124-30.486 1.289-4.302 1.529-6.535 1.25-11.636-.637-11.694-5.518-19.646-14.892-24.261-6.535-3.217-15.668-3.747-23.513-1.364-2.867.87-5.404 1.393-5.636 1.16-.552-.552 3.612-17.051 7.232-28.655 1.566-5.021 2.75-9.634 2.632-10.251-.195-1.01-35.102-1.16-346.388-1.487l-346.172-.363-3.09-1.651c-10.225-5.462-9.373-20.915 1.391-25.221 2.789-1.116 28.874-1.196 354.577-1.086 193.361.066 351.688 0 351.837-.151.148-.149 3.668-6.976 7.822-15.172 7.377-14.557 16.589-30.751 17.983-31.613 1.162-.718 7.529 2.929 15.07 8.634 8.043 6.084 21.392 19.47 31.147 31.232l6.536 7.88 46.053-.072c43.716-.07 46.211 0 49.17 1.305 5.661 2.504 9.123 9.333 7.774 15.335-.852 3.793-2.294 5.97-5.653 8.532l-2.685 2.048h-37.965c-33.437 0-37.916.13-37.566 1.091.218.6 3.17 5.836 6.558 11.636 16.375 28.031 34.805 67.323 48.102 102.553 2.49 6.596 6.96 17.692 9.936 24.657s7.242 17.438 9.48 23.273c5.196 13.546 5.943 15.025 7.034 13.933.464-.463 1.573-4.346 2.465-8.629 4.207-20.2 6.977-34.374 9.333-47.756 24.4-138.642 64.454-258.891 114.632-344.142l6.487-11.02.31-32.617c.746-78.478 4.081-1163.514 3.58-1164.86-.173-.465-.629-6.41-1.012-13.21-.384-6.8-1.03-13.509-1.436-14.909-.407-1.4-2.598-10.236-4.87-19.636-2.82-11.666-5.264-19.862-7.701-25.818-1.964-4.8-4.835-12-6.38-16-3.155-8.167-9.673-20.24-17.078-31.637-21.214-32.647-49.458-58.29-86.205-78.267-10.66-5.795-12.424-6.584-26.182-11.71-27.556-10.269-44.244-14.706-62.545-16.632-9.656-1.016-176.073-1.782-769.818-3.541-74-.22-163.019-.564-197.819-.765-58.257-.337-64.627-.254-80.363 1.047-33.612 2.779-54.404 6.406-76 13.257-24.408 7.744-36.686 13.416-55.637 25.7-15.625 10.129-22.662 15.92-36.366 29.93-12.916 13.203-25.38 29.146-30.727 39.303-9.356 17.772-17.527 49.208-19.057 73.315-.739 11.65-1.07 56.718-1.226 166.545-.084 59.2-.393 161.964-.687 228.364-.755 170.685-2.831 866.266-3.037 1017.454l-.172 126.546 1.99 9.09c8.538 38.984 29.72 82.649 55.919 115.273 22.361 27.846 47.544 48.224 77.363 62.605 13.634 6.575 23.944 10.34 37.455 13.68 25.994 6.427 42.814 7.428 127.636 7.596 29.6.06 100.619.316 157.819.572 170.563.764 664.274 2.312 700.848 2.198 18.667-.058 34.146-.311 34.398-.563zM435.957 1831.436c-.546-.884-2.086-169.782-1.762-193.23l.222-16 12.062-.452c6.635-.248 53.613-.69 104.395-.983 77.172-.443 92.465-.37 93.14.453 1.183 1.437 2.435 207.145 1.27 208.484-1.084 1.247-9.88 1.393-120.41 1.997-60.7.332-88.598.248-88.917-.269zm122.096-2.736c46.4-.262 84.594-.686 84.876-.943.525-.477-.76-202.593-1.299-204.329-.236-.76-2.376-.876-10.301-.554-5.502.224-51.038.601-101.19.839-50.154.237-91.685.622-92.292.855-.981.377-1.047 9.202-.596 79.758.28 43.635.517 89.236.527 101.338.017 18.756.184 22.166 1.132 23.114.955.955 3.485 1.062 17.946.756 9.258-.197 54.797-.572 101.197-.834zm152.259-150.17c-8.8-1.44-13.884-11.075-10.165-19.262 1.372-3.02 4.98-6.563 7.758-7.62 2.018-.767 55.232-1.297 221.057-2.203 73.6-.402 185.2-1.043 248-1.425 62.8-.383 157.218-.897 209.818-1.143l95.637-.448 3.263 1.707c1.797.94 4.198 3.054 5.345 4.705 1.75 2.52 2.083 3.724 2.083 7.548 0 5.8-2.44 9.693-7.71 12.309l-3.554 1.764-158.26.914c-87.042.503-251.04 1.432-364.44 2.065s-215.224 1.228-226.276 1.322c-11.052.094-21.202-.01-22.556-.232zM438.27 1408.21c-1.744-.174-2.818-.702-3.05-1.5-.196-.677-.54-34.449-.763-75.049-.224-40.6-.605-86.922-.847-102.937-.4-26.395-.33-29.211.748-30.106.98-.813 19.427-1.108 104.88-1.678 62.59-.418 103.955-.43 104.356-.028.65.65 1.73 111.37 1.73 177.295v32l-3.636.44c-2 .244-44.218.679-93.818.968-49.6.29-93.945.602-98.545.694-4.6.093-9.575.047-11.055-.1zm126.327-3.531c42.4-.24 77.352-.597 77.67-.791.632-.386-.112-166.767-.851-190.409l-.455-14.545-4 .049c-2.2.027-44.582.28-94.182.565-84.947.486-104.584.807-106.083 1.733-.351.216-.434 21.649-.187 48.475.243 26.448.649 72.142.9 101.542.33 38.33.691 53.619 1.278 54.035.451.32 11.62.401 24.82.182 13.2-.22 58.69-.596 101.09-.836zm278.182-29.381c-129.451-.342-137.96-.441-140.144-1.636-9.505-5.198-9.038-20.159.774-24.815 2.302-1.092 36.9-1.186 437.808-1.186 313.788 0 436.35.224 439.038.8 9.674 2.075 14.163 12.446 8.992 20.772-1.285 2.068-3.237 3.98-5.013 4.908l-2.91 1.52h-300.363c-165.2 0-362.382-.163-438.182-.363zm-139.779-118.515c-10.113-5.567-9.655-20.166.792-25.237 2.94-1.427-30.652-1.118 382.624-3.52 111.8-.65 245-1.438 296-1.75 71.81-.441 93.516-.37 96.224.312 7.423 1.872 11.972 9.593 9.99 16.956-1.075 3.988-5.394 8.474-9.123 9.473-1.98.53-61.482 1.134-186.182 1.889-626.817 3.792-587.075 3.666-590.325 1.877zM428.471 991.18c-.537-.671-.927-26.849-1.256-84.247-.262-45.8-.657-92.305-.878-103.344-.346-17.307-.25-20.223.699-21.171.96-.96 10.47-1.16 75.149-1.576 40.727-.263 81.813-.552 91.3-.644l17.251-.166 3.227-6.913c19.244-41.223 36.341-77.956 43.5-93.459 4.803-10.4 9.127-19.325 9.61-19.833 1.35-1.418 21.423 7.466 22.928 10.148 1.384 2.465.904 3.698-11.409 29.322-26.112 54.342-41.844 88.208-41.89 90.181-.028 1.2.179 19.855.461 41.455.282 21.6.724 66.155.982 99.01.456 58.12.432 59.75-.902 60.135-1.382.399-43.523.862-150.137 1.65-47.873.353-57.991.259-58.636-.548zm182.31-3.191c10.2-.141 19.967-.273 21.705-.293l3.16-.036-.53-92.367c-.29-50.802-.755-94.248-1.032-96.546l-.503-4.178-4.88 10.182c-2.684 5.6-22.46 47.458-43.946 93.018-29.545 62.649-39.543 83.19-41.024 84.292-1.79 1.332-2.102 1.363-3.636.351-1.968-1.297-105.93-94.999-107.406-96.805-1.851-2.266-1.204-4.945 1.866-7.72a2568.79 2568.79 0 0010.631-9.73c6.102-5.61 8.15-7.09 9.558-6.91 1.3.168 10.378 9.585 33.172 34.413 35.397 38.557 44.077 47.637 45.54 47.637 1.206 0 3.945-5.65 32.43-66.91 11.81-25.4 26.253-56.427 32.093-68.95 5.84-12.523 10.62-23.253 10.62-23.846 0-.934-2.806-1.027-21.273-.702-11.7.206-51.873.578-89.273.827-37.4.25-68.273.62-68.606.825-.333.204-.42 21.362-.19 47.018.228 25.656.618 71.356.868 101.556.249 30.2.628 55.2.841 55.556.339.563 123.504.096 179.814-.682zm102.272-37.76c-8.887-3.168-11.938-13.981-5.848-20.722 1.375-1.522 3.397-3.137 4.492-3.587 1.472-.606 109.59-.77 413.682-.63l411.69.188 2.95 1.952c8.385 5.55 7.674 18.022-1.29 22.593-2.366 1.206-23.566 1.27-412.676 1.24-347.041-.025-410.616-.185-413-1.035zm-1.545-110.505c-4.208-1.87-7.637-7.336-7.637-12.174 0-5.707 5.198-11.68 10.91-12.538 1.4-.21 38.054-.57 81.454-.801 43.4-.23 128.327-.724 188.727-1.097 368.964-2.275 452.318-2.738 453.085-2.515.404.117 1.608.403 2.677.637 2.531.552 6.166 3.641 7.641 6.494 1.51 2.92 1.497 8.965-.026 11.91-1.852 3.58-5.547 5.974-10.383 6.726-2.351.366-76.437 1.026-164.994 1.471-88.4.445-239.273 1.277-335.273 1.85-216.758 1.293-223.355 1.294-226.182.037zM427.558 575.4c-1.27-.872-1.232 1.499-1.908-118.73-.34-60.575-.267-90.777.223-91.08.402-.248 20.817-.618 45.365-.822l90.088-.748 45.454-.378 1.194-1.99c.657-1.095 14.046-29.645 29.753-63.445 15.706-33.8 28.915-61.846 29.351-62.323 1.25-1.37 21.504 7.564 22.937 10.116 1.399 2.492 1.165 3.067-14.87 36.57-6.893 14.4-18.746 39.437-26.342 55.637l-13.81 29.454.539 13.091c.296 7.2.765 53.402 1.042 102.671.484 86.327.454 89.605-.827 90.274-.807.42-34.696.873-86.058 1.15-46.6.252-92.909.64-102.909.862-11.389.253-18.57.138-19.222-.31zm136.313-3.438c38.4-.237 69.938-.55 70.085-.694.728-.714-.633-194.374-1.38-196.334-.46-1.207-.923-.65-2.718 3.273-1.191 2.6-9.352 19.945-18.135 38.545-8.783 18.6-21.598 45.764-28.478 60.364-34.985 74.249-37.548 79.499-39.514 80.954-1.86 1.377-2.052 1.388-3.835.22-1.032-.677-15.37-13.4-31.86-28.276-16.49-14.876-40.128-36.19-52.528-47.364-12.4-11.175-22.987-21.123-23.525-22.107-.871-1.59-.799-2.04.654-4.063.899-1.25 3.303-3.743 5.343-5.538 2.04-1.796 6.225-5.642 9.3-8.546 5.59-5.28 7.315-6.078 9.451-4.371.626.5 14.49 15.473 30.808 33.273 36.721 40.054 44.29 48 45.729 48 .684 0 2.253-2.231 3.965-5.637 2.767-5.508 65.465-139.998 67.495-144.782l1.027-2.419-78.396.507c-43.118.28-83.142.713-88.942.964l-10.546.457v13.091c0 62.868 1.355 189.957 2.034 190.79.648.793 6.548.893 32.47.547 17.423-.232 63.096-.616 101.496-.854zm145.455-37.022c-.4-.133-1.621-.44-2.714-.68-2.666-.588-7.09-4.57-8.304-7.473-2.419-5.79-.139-13.375 5.054-16.81l2.95-1.952 428.32.208c388.817.188 428.53.313 430.598 1.357 5.356 2.705 7.94 6.693 7.94 12.253 0 5.573-3.484 10.81-8.437 12.681-1.439.544-128.79.756-428.364.716-234.474-.031-426.643-.166-427.043-.3zm-4.364-115.702c-3.265-1.816-4.736-3.29-6.259-6.275-2.87-5.624-1.071-13.06 4.118-17.019 2.189-1.669 3.655-2.076 9.28-2.577 3.673-.327 137.261-1.273 296.861-2.101 159.6-.83 326.87-1.705 371.711-1.946l81.53-.438 3.427 1.66c5.47 2.647 8.376 8.396 7.341 14.52-.584 3.458-4.778 8.569-8.208 10.002-2.719 1.136-28.853 1.36-405.983 3.482-373.604 2.101-351.362 2.058-353.818.692zm794.546 1357.967c0-.151-.573-.724-1.273-1.273-1.154-.904-1.18-.879-.275.275.95 1.211 1.548 1.596 1.548.998z" fill="#b1abab"/><path d="M1567.144 2172.543c-16.653-9.171-26.973-15.756-52.581-33.548-21.506-14.941-56.47-48.903-70.818-68.788l-1.575-2.182-59.15-.374c-32.532-.206-113.312-.472-179.512-.592s-122-.336-124-.482c-2-.146-91.673-.453-199.273-.683-346.849-.74-418.622-1.13-429.24-2.334-27.826-3.156-54.225-10.954-76.986-22.74-38.84-20.111-71.647-52.458-96.979-95.618-12.106-20.627-26.522-54.306-31.367-73.28-3.582-14.031-3.634-15.694-3.58-114.806.028-51 .165-94.691.304-97.091.14-2.4.45-104.51.69-226.91.24-122.4.597-242.508.794-266.908.197-24.4.524-122.91.726-218.91.202-96 .539-212.509.748-258.909.21-46.4.538-148.509.73-226.909.192-78.4.483-143.363.646-144.363.163-1 .514-5.255.78-9.455.858-13.52 4.747-33.029 9.183-46.067 3.241-9.526 10.845-24.8 16.721-33.588 5.97-8.928 14.39-18.37 30.185-33.85 10.367-10.16 12.974-12.263 25.372-20.458 20.245-13.38 26.34-16.843 36.977-20.999 33.704-13.17 55.602-18.359 92.114-21.825 16.315-1.548 16.829-1.552 173.091-1.085l516 1.54c226.12.676 361.437 1.34 365.112 1.794 31.138 3.844 62.976 13.419 90.524 27.224 16.704 8.37 24.315 13.279 40 25.794 28.008 22.348 50.646 50.53 65.103 81.047 14.242 30.063 22.628 60.352 24.193 87.383.587 10.128.103 282.697-.877 494.181-.228 49.4-.637 146.273-.907 215.273-.315 80.336-.737 124.539-1.174 122.909-.875-3.266 1.12-769.451 2.067-793.455.213-5.4.035-15.872-.395-23.272-2.016-34.693-1.404-30.352-8.054-57.084-5.508-22.143-17.652-51.272-27.595-66.19-1.066-1.6-3.413-5.2-5.216-8-10.967-17.032-31.001-38.33-50.054-53.21-13.324-10.406-39.137-25.53-52.363-30.678-17.55-6.832-34.122-12.664-38.546-13.564-2.6-.53-8-1.791-12-2.804-14.894-3.772-21.425-4.069-105.818-4.81-85.154-.747-624.384-2.364-830.546-2.49-128.425-.08-141.909.137-153.212 2.458-1.933.397-8.588 1.39-14.788 2.204-14.156 1.861-24.905 4.259-39.272 8.76-25.291 7.922-36.453 12.989-55.966 25.406-15.764 10.03-20.094 13.487-34.11 27.232-10.557 10.352-20.003 21.295-28.29 32.77-11.856 16.42-20.422 42.773-24.94 76.727-1.586 11.927-1.71 37.763-3.94 827.273-.596 210.8-1.251 412.236-1.456 447.636-.205 35.4-.575 109.527-.824 164.727l-.452 100.364 2.309 12c2.642 13.738 9.935 37.35 15.499 50.182 24.264 55.961 59.443 98.078 103.978 124.485 29.47 17.474 58.611 25.773 99.1 28.224 7.7.467 140.65 1.142 352.364 1.79 187 .572 403.405 1.263 480.9 1.536 124.062.437 140.95.367 141.313-.581.245-.637-2.686-5.795-7.176-12.63-21.48-32.695-35.51-67.177-42.305-103.964-2.162-11.704-4.004-28.668-4.004-36.868v-6.048l7.818-.02c6.226-.014 8.78-.355 12.545-1.672 13.866-4.85 24.909-16.409 29.124-30.486 1.289-4.302 1.529-6.535 1.25-11.636-.637-11.694-5.518-19.646-14.892-24.261-6.535-3.217-15.668-3.747-23.513-1.364-2.867.87-5.37 1.426-5.564 1.233-.76-.76 2.084-11.681 9.877-37.92 3.452-11.624 9.43-25.647 18.761-44 8.378-16.481 17.667-32.909 19.114-33.803.384-.237 2.28.37 4.215 1.351 9.72 4.926 26.768 20.234 38.57 34.634 3.441 4.2 7.615 9.17 9.275 11.046 3.197 3.614 18.91 26.485 19.732 28.723.268.727 3.258 6.067 6.647 11.867 16.375 28.03 34.805 67.323 48.102 102.553 2.49 6.596 6.96 17.691 9.936 24.657 2.976 6.965 7.242 17.437 9.48 23.272 5.196 13.547 5.943 15.025 7.034 13.934.464-.464 1.573-4.347 2.465-8.63 4.207-20.199 6.977-34.373 9.333-47.755 24.498-139.2 65.105-260.789 115.313-345.277 3.634-6.115 6.727-12.1 6.873-13.3.377-3.086 1.045-110.689 1.048-168.909 0-36.05.22-48.909.83-48.909.614 0 .754 27.32.545 106.728-.212 80.099-.073 106.727.554 106.727.46 0 4.499-5.236 8.975-11.636 19.825-28.347 40.306-50.467 61.163-66.057 3.036-2.269 6.014-4.125 6.618-4.125 2.186 0 13.82 30.01 22.023 56.809 15.126 49.42 22.39 97.015 24.019 157.373.227 8.4.597 17.154.824 19.454.29 2.941.16 4.182-.438 4.182-.468 0-2.599-1.541-4.735-3.425-5.578-4.918-12.249-8.734-16.992-9.72-5.467-1.136-14.137-.464-18.524 1.436-4.4 1.906-11.442 8.564-14.66 13.86-7.73 12.727-8.953 30.346-3.005 43.337 2.131 4.656 7.523 10.64 11.897 13.203 4.144 2.428 11.201 4.584 14.973 4.573 7.03-.02 16.348-3.87 22.285-9.208 2.039-1.833 3.91-3.13 4.16-2.88 1 1.001-5.903 42.8-10.403 62.977-2.998 13.44-8.876 37.033-9.465 37.986-.23.37-3.576-2.392-7.438-6.139-10.543-10.228-19.774-15.13-33.295-17.683-16.42-3.1-33.616 1.688-45.477 12.662-5.985 5.538-8.195 9.647-10.792 20.065-3.153 12.65-1.14 23.427 6.522 34.937 3.315 4.98 10.48 12.473 15.352 16.057 4.874 3.586 16.168 8.817 22.85 10.584 4.013 1.06 8.75 1.627 15.273 1.824 5.2.158 9.584.367 9.743.466 1.508.937-18.773 41.016-31.932 63.102-13.502 22.662-33.956 51.227-51.287 71.622-10.2 12.005-38.74 40.817-50.16 50.64-23.844 20.51-53.507 40.818-76.752 52.545-12.056 6.082-12.719 6.079-23.976-.12zM538.664 981.298c-4.425-3.671-104.96-94.451-105.975-95.692-1.852-2.263-1.204-4.943 1.866-7.718a2569.71 2569.71 0 0010.631-9.73c6.102-5.61 8.15-7.09 9.558-6.91 1.3.168 10.378 9.585 33.172 34.413 35.397 38.557 44.077 47.637 45.54 47.637 1.206 0 3.945-5.65 32.43-66.91a89111.72 89111.72 0 0132.093-68.95c5.84-12.523 10.62-23.552 10.62-24.51 0-.957.476-2.006 1.058-2.332.582-.326 2.747-4.188 4.812-8.582 7.274-15.48 33.689-72.222 42.654-91.626 4.99-10.8 9.469-20.052 9.952-20.56 1.348-1.418 21.421 7.467 22.926 10.148 1.384 2.465.904 3.698-11.409 29.322-23.539 48.986-41.72 88.074-42.401 91.154-.412 1.865-1.366 3.882-2.12 4.482-.755.6-20.87 42.49-44.702 93.09-40.874 86.788-45.12 95.274-47.664 95.274-.347 0-1.716-.9-3.042-2zm.396-423.623c-1.154-.892-16.989-15.042-35.189-31.443l-52-46.861c-10.4-9.373-19.35-17.846-19.888-18.829-.871-1.59-.799-2.04.654-4.062.899-1.25 3.303-3.743 5.343-5.538 2.04-1.796 6.225-5.642 9.3-8.546 5.59-5.28 7.315-6.078 9.451-4.371.626.5 14.49 15.473 30.808 33.273 36.716 40.049 44.29 48 45.728 48 .675 0 2.203-2.125 3.79-5.273 6.515-12.925 68.008-145.788 68.078-147.091.043-.8.65-2.11 1.35-2.91.7-.8 14.441-29.763 30.536-64.363 16.095-34.6 29.62-63.3 30.057-63.777 1.25-1.37 21.504 7.564 22.937 10.116 1.399 2.492 1.165 3.067-14.87 36.57-26.343 55.038-40.365 85.334-40.365 87.212 0 1.105-.739 2.642-1.707 3.55-.94.881-6.634 12.075-12.655 24.875a227283.525 227283.525 0 01-60.47 128.363c-12.76 27.073-15.905 32.728-18.201 32.728-.324 0-1.533-.73-2.687-1.623z" fill="#49e198"/></svg>