<svg xmlns="http://www.w3.org/2000/svg" xmlns:xlink="http://www.w3.org/1999/xlink" version="1.2" baseProfile="tiny" x="0px" y="0px" viewBox="0 0 100 100" xml:space="preserve"><rect x="40" y="77.5" width="5" height="5"/><rect x="55" y="77.5" width="5" height="5"/><path d="M13.75,37.5c1.343,0,2.612-0.313,3.75-0.856v14.214c0,9.055,3.597,17.739,10,24.142v5c0,8.284,6.716,15,15,15h15  c8.284,0,15-6.716,15-15v-5c6.403-6.403,10-15.087,10-24.142V36.644c1.138,0.543,2.407,0.856,3.75,0.856  c4.825,0,8.75-3.925,8.75-8.75V22.5H82.5V11.972C82.5,8.128,79.372,5,75.528,5c-2.868,0-5.408,1.72-6.474,4.383L66.807,15H33.193  l-2.247-5.618C29.88,6.72,27.34,5,24.472,5C20.628,5,17.5,8.128,17.5,11.972V22.5H5v6.25C5,33.575,8.925,37.5,13.75,37.5z   M82.5,27.5H90v1.25c0,2.068-1.682,3.75-3.75,3.75s-3.75-1.682-3.75-3.75V27.5z M65,80c0,4.135-3.364,7.5-7.5,7.5h-15  c-4.135,0-7.5-3.365-7.5-7.5v-2.5c0-2.757,2.243-5,5-5h20c2.757,0,5,2.243,5,5V80z M73.697,11.24c0.301-0.753,1.02-1.24,1.831-1.24  c1.087,0,1.972,0.885,1.972,1.972V15h-5.307L73.697,11.24z M75,22.5v28.358c0,7.116-2.771,13.807-7.803,18.839l-0.447,0.447  C64.969,68.508,62.603,67.5,60,67.5H40c-2.603,0-4.969,1.008-6.75,2.643l-0.447-0.447C27.771,64.665,25,57.974,25,50.858V22.5H75z   M22.5,11.972c0-1.087,0.885-1.972,1.972-1.972c0.811,0,1.53,0.487,1.831,1.239L27.807,15H22.5V11.972z M10,27.5h7.5v1.25  c0,2.068-1.682,3.75-3.75,3.75S10,30.818,10,28.75V27.5z"/><path d="M32.5,45c0-2.757,2.243-5,5-5s5,2.243,5,5h5c0-5.514-4.486-10-10-10s-10,4.486-10,10H32.5z"/><path d="M57.5,45c0-2.757,2.243-5,5-5s5,2.243,5,5h5c0-5.514-4.486-10-10-10s-10,4.486-10,10H57.5z"/></svg>
