<?xml version="1.0" encoding="UTF-8" standalone="no"?>
<svg xmlns="http://www.w3.org/2000/svg" xmlns:xlink="http://www.w3.org/1999/xlink" style="isolation:isolate" viewBox="0 0 1800 400" width="1800pt" height="300pt"><defs><clipPath id="_clipPath_SeGSemo7CUI4vPnXFaQTYTh16oAKwMOt"><rect width="1800" height="400"/></clipPath></defs><g clip-path="url(#_clipPath_SeGSemo7CUI4vPnXFaQTYTh16oAKwMOt)"><path d=" M 426.855 50 L 614.355 180 L 801.855 310" fill="none" vector-effect="non-scaling-stroke" stroke-width="40" stroke="rgb(0,0,0)" stroke-linejoin="bevel" stroke-linecap="round" stroke-miterlimit="3"/><circle vector-effect="non-scaling-stroke" cx="311.8554295000491" cy="270" r="50" fill="rgb(0,0,0)"/><circle vector-effect="non-scaling-stroke" cx="541.8554295000491" cy="270" r="50" fill="rgb(0,0,0)"/><line x1="50" y1="310" x2="425" y2="50" vector-effect="non-scaling-stroke" stroke-width="40" stroke="rgb(0,0,0)" stroke-linejoin="bevel" stroke-linecap="round" stroke-miterlimit="3"/><path d=" M 1044.261 190.106 L 1044.261 302.589 L 997.2 302.589 L 997.2 201.833 L 997.2 201.833 Q 997.2 164.493 969.427 164.493 L 969.427 164.493 L 969.427 164.493 Q 949.677 164.493 940.882 177.917 L 940.882 177.917 L 940.882 177.917 Q 932.087 191.341 932.087 221.429 L 932.087 221.429 L 932.087 302.589 L 885.026 302.589 L 885.026 62.503 L 932.087 62.503 L 932.087 111.415 L 932.087 111.415 Q 932.087 117.124 931.007 138.263 L 931.007 138.263 L 929.927 152.149 L 932.396 152.149 L 932.396 152.149 Q 948.134 126.845 982.388 126.845 L 982.388 126.845 L 982.388 126.845 Q 1012.784 126.845 1028.522 143.2 L 1028.522 143.2 L 1028.522 143.2 Q 1044.261 159.556 1044.261 190.106 L 1044.261 190.106 L 1044.261 190.106 Z  M 1130.204 216.028 L 1130.204 216.028 L 1130.204 216.028 Q 1130.204 241.642 1138.613 254.757 L 1138.613 254.757 L 1138.613 254.757 Q 1147.022 267.872 1166.001 267.872 L 1166.001 267.872 L 1166.001 267.872 Q 1184.825 267.872 1193.08 254.834 L 1193.08 254.834 L 1193.08 254.834 Q 1201.335 241.796 1201.335 216.028 L 1201.335 216.028 L 1201.335 216.028 Q 1201.335 190.415 1193.003 177.608 L 1193.003 177.608 L 1193.003 177.608 Q 1184.671 164.802 1165.692 164.802 L 1165.692 164.802 L 1165.692 164.802 Q 1146.868 164.802 1138.536 177.531 L 1138.536 177.531 L 1138.536 177.531 Q 1130.204 190.261 1130.204 216.028 Z  M 1249.476 216.028 L 1249.476 216.028 L 1249.476 216.028 Q 1249.476 258.151 1227.257 281.913 L 1227.257 281.913 L 1227.257 281.913 Q 1205.038 305.675 1165.384 305.675 L 1165.384 305.675 L 1165.384 305.675 Q 1140.542 305.675 1121.563 294.797 L 1121.563 294.797 L 1121.563 294.797 Q 1102.585 283.919 1092.401 263.552 L 1092.401 263.552 L 1092.401 263.552 Q 1082.218 243.185 1082.218 216.028 L 1082.218 216.028 L 1082.218 216.028 Q 1082.218 173.751 1104.282 150.298 L 1104.282 150.298 L 1104.282 150.298 Q 1126.347 126.845 1166.31 126.845 L 1166.31 126.845 L 1166.31 126.845 Q 1191.151 126.845 1210.13 137.646 L 1210.13 137.646 L 1210.13 137.646 Q 1229.108 148.446 1239.292 168.659 L 1239.292 168.659 L 1239.292 168.659 Q 1249.476 188.872 1249.476 216.028 Z  M 1442.81 216.028 L 1442.81 302.589 L 1395.749 302.589 L 1395.749 201.833 L 1395.749 201.833 Q 1395.749 183.163 1389.5 173.828 L 1389.5 173.828 L 1389.5 173.828 Q 1383.251 164.493 1369.827 164.493 L 1369.827 164.493 L 1369.827 164.493 Q 1351.774 164.493 1343.597 177.763 L 1343.597 177.763 L 1343.597 177.763 Q 1335.419 191.032 1335.419 221.429 L 1335.419 221.429 L 1335.419 302.589 L 1288.358 302.589 L 1288.358 130.085 L 1324.31 130.085 L 1330.636 152.149 L 1333.259 152.149 L 1333.259 152.149 Q 1340.202 140.269 1353.317 133.557 L 1353.317 133.557 L 1353.317 133.557 Q 1366.433 126.845 1383.405 126.845 L 1383.405 126.845 L 1383.405 126.845 Q 1422.134 126.845 1435.866 152.149 L 1435.866 152.149 L 1440.032 152.149 L 1440.032 152.149 Q 1446.976 140.114 1460.477 133.479 L 1460.477 133.479 L 1460.477 133.479 Q 1473.978 126.845 1490.95 126.845 L 1490.95 126.845 L 1490.95 126.845 Q 1520.267 126.845 1535.311 141.889 L 1535.311 141.889 L 1535.311 141.889 Q 1550.354 156.933 1550.354 190.106 L 1550.354 190.106 L 1550.354 302.589 L 1503.14 302.589 L 1503.14 201.833 L 1503.14 201.833 Q 1503.14 183.163 1496.891 173.828 L 1496.891 173.828 L 1496.891 173.828 Q 1490.642 164.493 1477.218 164.493 L 1477.218 164.493 L 1477.218 164.493 Q 1459.937 164.493 1451.373 176.837 L 1451.373 176.837 L 1451.373 176.837 Q 1442.81 189.181 1442.81 216.028 L 1442.81 216.028 L 1442.81 216.028 Z  M 1670.089 160.327 L 1670.089 160.327 L 1670.089 160.327 Q 1655.122 160.327 1646.636 169.816 L 1646.636 169.816 L 1646.636 169.816 Q 1638.149 179.306 1636.915 196.741 L 1636.915 196.741 L 1702.954 196.741 L 1702.954 196.741 Q 1702.646 179.306 1693.851 169.816 L 1693.851 169.816 L 1693.851 169.816 Q 1685.056 160.327 1670.089 160.327 Z  M 1676.724 305.675 L 1676.724 305.675 L 1676.724 305.675 Q 1635.063 305.675 1611.61 282.685 L 1611.61 282.685 L 1611.61 282.685 Q 1588.157 259.694 1588.157 217.571 L 1588.157 217.571 L 1588.157 217.571 Q 1588.157 174.214 1609.836 150.529 L 1609.836 150.529 L 1609.836 150.529 Q 1631.515 126.845 1669.78 126.845 L 1669.78 126.845 L 1669.78 126.845 Q 1706.349 126.845 1726.716 147.675 L 1726.716 147.675 L 1726.716 147.675 Q 1747.083 168.505 1747.083 205.228 L 1747.083 205.228 L 1747.083 228.063 L 1635.835 228.063 L 1635.835 228.063 Q 1636.606 248.122 1647.716 259.386 L 1647.716 259.386 L 1647.716 259.386 Q 1658.825 270.649 1678.884 270.649 L 1678.884 270.649 L 1678.884 270.649 Q 1694.468 270.649 1708.354 267.409 L 1708.354 267.409 L 1708.354 267.409 Q 1722.241 264.169 1737.362 257.071 L 1737.362 257.071 L 1737.362 293.485 L 1737.362 293.485 Q 1725.019 299.657 1710.978 302.666 L 1710.978 302.666 L 1710.978 302.666 Q 1696.937 305.675 1676.724 305.675 Z " fill="rgb(0,0,0)"/></g></svg>
