<svg xmlns="http://www.w3.org/2000/svg" viewBox="0 0 64 60" x="0px" y="0px"><title>Plastic Free icon</title><desc>Plastic Free icon for website, application, printing, document, poster design, etc.</desc><metadata><?xpacket begin="&#65279;" id="W5M0MpCehiHzreSzNTczkc9d"?><x:xmpmeta xmlns:x="adobe:ns:meta/" x:xmptk="Adobe XMP Core 5.6-c148 79.163858, 2019/03/06-03:18:36        "/><?xpacket end="w"?></metadata><g><g><path d="M53,41a1,1,0,0,0-1,1V59.382l-2-1V40a1,1,0,0,0-2,0V58.382l-2,1V52a1,1,0,0,0-2,0v8H10V36a1,1,0,0,0-2,0V61a1,1,0,0,0,1,1H45a1.008,1.008,0,0,0,.351-.071c.019-.007.038-.012.056-.02s.027-.008.039-.014L49,60.118,52.553,61.9A1,1,0,0,0,54,61V42A1,1,0,0,0,53,41Z"/><path d="M21.187,47.94a1,1,0,0,0,.278,1.387,9.917,9.917,0,0,0,12.5-1.2l.067,1.039a1,1,0,0,0,1,.935c.022,0,.044,0,.066,0a1,1,0,0,0,.933-1.062l-.232-3.6A1,1,0,0,0,34.73,44.5l-3.6.232a1,1,0,1,0,.129,2l1.359-.088a7.924,7.924,0,0,1-10.046,1.02A1,1,0,0,0,21.187,47.94Z"/><path d="M30.832,29.445a1,1,0,0,0-1.387-.277l-3,2a1,1,0,0,0-.277,1.387l2,3a1,1,0,1,0,1.664-1.11l-.773-1.159A8,8,0,0,1,35,41c0,.123-.009.244-.018.365l-.008.134a1,1,0,0,0,.935,1.06c.021,0,.043,0,.064,0a1,1,0,0,0,1-.937l.008-.122c.011-.166.022-.333.022-.5a10,10,0,0,0-7.288-9.606l.843-.562A1,1,0,0,0,30.832,29.445Z"/><path d="M15.077,43.458a1,1,0,0,0,.453,1.34l3.232,1.6a1,1,0,0,0,1.34-.453l1.6-3.232a1,1,0,0,0-1.793-.886l-.619,1.251a7.92,7.92,0,0,1,4.158-9.234,1,1,0,0,0-.892-1.79A9.944,9.944,0,0,0,17,41a9.651,9.651,0,0,0,.333,2.458l-.916-.453A1,1,0,0,0,15.077,43.458Z"/><path d="M58.221,9.394a1,1,0,0,0-1.282.6.984.984,0,0,1-.789.638,1,1,0,0,0-.72,1.473,1.967,1.967,0,0,1,.141,1.648,2,2,0,0,1-3.822-.219,1,1,0,0,0-1.567-.57A1.98,1.98,0,0,1,47.113,12a1,1,0,0,0-.944-.676,1,1,0,0,1-.336-.053.987.987,0,0,1-.639-.79,1,1,0,0,0-1.472-.72,1.992,1.992,0,0,1-2.844-2.422,2,2,0,0,1,2.563-1.2,1,1,0,0,0,1.283-.6,1.978,1.978,0,0,1,3.338-.665,1,1,0,0,0,.718.322,1.017,1.017,0,0,0,.729-.3,2.987,2.987,0,0,1,5.078,2.621,1,1,0,1,0,1.969.352A4.985,4.985,0,0,0,48.8,2.9a3.816,3.816,0,0,0-.832-.424,4,4,0,0,0-4.725,1.58A4,4,0,0,0,38.881,9H37a3.959,3.959,0,0,0-2,.556V9a1,1,0,0,0-2,0v4.09a6,6,0,0,0-3.482,1.934L28.242,7.785a7,7,0,0,0-8.11-5.678,4.981,4.981,0,0,0-3.566,2.659A7.008,7.008,0,0,0,7.5,2.938,5.008,5.008,0,0,0,5.67,9.769l3.925,6.8a1,1,0,0,0,1.733-1L7.4,8.769a3,3,0,0,1,1.1-4.1A5.006,5.006,0,0,1,15.331,6.5l.5.866-2.6,1.5a1,1,0,1,0,1,1.732l2.6-1.5,1,1.732-2.6,1.5a1,1,0,1,0,1,1.732l2.6-1.5,1,1.732-2.6,1.5a1,1,0,1,0,1,1.732l2.6-1.5,1.556,2.7-.832-.555a1,1,0,0,0-1.11,0L15,21.8l-5.445-3.63A1,1,0,0,0,8,19V32a1,1,0,0,0,2,0V20.869l4.445,2.963a1,1,0,0,0,1.11,0L21,20.2l5.445,3.63a1,1,0,0,0,1.11,0L33,20.2l5.445,3.63a1,1,0,0,0,1.11,0L44,20.869V48a1,1,0,0,0,2,0V20.618l2,1V29a1,1,0,0,0,2,0V21.618l2-1V38a1,1,0,0,0,2,0V19a1,1,0,0,0-1.447-.895L49,19.882l-.216-.108a36.831,36.831,0,0,1,2.43-3.575,3.986,3.986,0,0,0,6.371-4.01,2.984,2.984,0,0,0,1.233-1.513A1,1,0,0,0,58.221,9.394ZM37,11h1.829A3.006,3.006,0,0,1,36,13H35A2,2,0,0,1,37,11ZM27,21.8l-.858-.571L18.063,7.233h0l-.029-.05A2.99,2.99,0,0,1,20.48,4.077a5,5,0,0,1,5.792,4.056l.174.984-2.955.522a1,1,0,0,0,.173,1.985.95.95,0,0,0,.175-.016l2.954-.521.347,1.97-2.954.521a1,1,0,0,0,.172,1.985.95.95,0,0,0,.175-.016l2.955-.52.566,3.211A5.981,5.981,0,0,0,28,19a5.786,5.786,0,0,0,.335,1.908Zm5.445-3.63-2.362,1.575A3.677,3.677,0,0,1,30,19a4,4,0,0,1,8,0,3.861,3.861,0,0,1-.467,1.82l-3.978-2.652A1,1,0,0,0,32.445,18.168ZM39.4,21.53A5.829,5.829,0,0,0,40,19a5.978,5.978,0,0,0-1.975-4.437,5.006,5.006,0,0,0,2.727-3.087,3.98,3.98,0,0,0,.638.3,3.914,3.914,0,0,0,.922.205A36.987,36.987,0,0,1,41.244,20.3Zm6.044-3.425v0a1,1,0,0,0-1,.059l-.8.531a39,39,0,0,0,.648-6.033,2.973,2.973,0,0,0,.85.483,2.87,2.87,0,0,0,.335.1,4.021,4.021,0,0,0,.452.666L45.4,15.37a1,1,0,1,0,1.879.684l.342-.939h0a3.984,3.984,0,0,0,1.732.211,39.246,39.246,0,0,0-2.366,3.551Z"/></g></g></svg>
