<svg xmlns="http://www.w3.org/2000/svg" xmlns:xlink="http://www.w3.org/1999/xlink" x="0" y="0" enable-background="new 0 0 100 100" version="1.0" viewBox="0 0 100 100" xml:space="preserve"><path d="M50,10L10,50c0,22.09,17.91,40,40,40s40-17.91,40-40S72.09,10,50,10z M46.667,22.76v3.906c0,11.048-8.952,20-20,20h-3.906 L46.667,22.76z M50,83.333c-17.253,0-31.458-13.184-33.145-30h9.812c14.727,0,26.666-11.94,26.666-26.667v-9.811 c16.816,1.686,30,15.892,30,33.145C83.333,68.379,68.379,83.333,50,83.333z"/></svg>